# xmcd
#
# Track frame offsets:
#	150
#	21297
#	34875
#	54075
#	71775
#	87977
#	106652
#	123830
#	143405
#	160505
#
# Disc length: 2342 seconds
#
# Revision: 0
# Processed by: cddbd v1.5PL3 Copyright (c) Steve Scherf et al.
# Submitted via: audiograbber 1.83.01
#
DISCID=7309240a
DTITLE=Los Capos de Mexico - Ya Llego Por Quien Lloraban 
DYEAR=2000
DGENRE=latin
TTITLE0=Ya Llego Por Quien Lloraban 
TTITLE1=El Mero Chingon
TTITLE2=El Ceja Guera 
TTITLE3=Contrabando De Juarez 
TTITLE4=Que Me Entierren En El Potrero 
TTITLE5=El Cochiloco 
TTITLE6=Me Voy 
TTITLE7=Mi Lindo Tesoro 
TTITLE8=Me Esta Llevando La Madre 
TTITLE9=Eres Todo Para Mi 
EXTD=
EXTT0=
EXTT1=
EXTT2=
EXTT3=
EXTT4=
EXTT5=
EXTT6=
EXTT7=
EXTT8=
EXTT9=
PLAYORDER=
